<mxfile host="Electron" agent="Mozilla/5.0 (X11; Linux x86_64) AppleWebKit/537.36 (KHTML, like Gecko) draw.io/26.1.1 Chrome/132.0.6834.210 Electron/34.3.3 Safari/537.36" version="26.1.1">
  <diagram name="Page-1" id="O2-RsP_AeWQ3Yp55QKSd">
    <mxGraphModel dx="475" dy="267" grid="0" gridSize="10" guides="1" tooltips="1" connect="1" arrows="1" fold="1" page="1" pageScale="1" pageWidth="827" pageHeight="1169" math="0" shadow="0">
      <root>
        <mxCell id="0" />
        <mxCell id="1" parent="0" />
        <mxCell id="MnEyjB3m39jPUvWwfNaF-1" value="X&lt;sub&gt;1&lt;/sub&gt;" style="rounded=1;whiteSpace=wrap;html=1;" vertex="1" parent="1">
          <mxGeometry x="110" y="90" width="90" height="40" as="geometry" />
        </mxCell>
        <mxCell id="MnEyjB3m39jPUvWwfNaF-5" value="E&lt;sub&gt;1&lt;/sub&gt;" style="ellipse;whiteSpace=wrap;html=1;aspect=fixed;" vertex="1" parent="1">
          <mxGeometry x="401" y="97.5" width="25" height="25" as="geometry" />
        </mxCell>
        <mxCell id="MnEyjB3m39jPUvWwfNaF-8" value="a&lt;sub&gt;1&lt;/sub&gt;" style="endArrow=classic;html=1;rounded=0;exitX=1;exitY=0.5;exitDx=0;exitDy=0;entryX=0;entryY=0.5;entryDx=0;entryDy=0;" edge="1" parent="1" source="MnEyjB3m39jPUvWwfNaF-1" target="MnEyjB3m39jPUvWwfNaF-14">
          <mxGeometry width="50" height="50" relative="1" as="geometry">
            <mxPoint x="380" y="290" as="sourcePoint" />
            <mxPoint x="280" y="110" as="targetPoint" />
          </mxGeometry>
        </mxCell>
        <mxCell id="MnEyjB3m39jPUvWwfNaF-9" value="a&lt;sub&gt;2&lt;/sub&gt;" style="endArrow=classic;html=1;rounded=0;exitX=1;exitY=0.5;exitDx=0;exitDy=0;entryX=0;entryY=0.5;entryDx=0;entryDy=0;" edge="1" parent="1" source="MnEyjB3m39jPUvWwfNaF-13" target="MnEyjB3m39jPUvWwfNaF-15">
          <mxGeometry width="50" height="50" relative="1" as="geometry">
            <mxPoint x="200" y="195" as="sourcePoint" />
            <mxPoint x="280" y="190" as="targetPoint" />
          </mxGeometry>
        </mxCell>
        <mxCell id="MnEyjB3m39jPUvWwfNaF-10" value="p&lt;sub&gt;2&lt;/sub&gt;" style="endArrow=classic;html=1;rounded=0;exitX=1;exitY=0.5;exitDx=0;exitDy=0;entryX=0;entryY=0.25;entryDx=0;entryDy=0;" edge="1" parent="1" source="MnEyjB3m39jPUvWwfNaF-1" target="MnEyjB3m39jPUvWwfNaF-15">
          <mxGeometry x="-0.28" y="2" width="50" height="50" relative="1" as="geometry">
            <mxPoint x="210" y="120" as="sourcePoint" />
            <mxPoint x="280" y="175" as="targetPoint" />
            <mxPoint as="offset" />
          </mxGeometry>
        </mxCell>
        <mxCell id="MnEyjB3m39jPUvWwfNaF-11" value="p&lt;sub&gt;1&lt;/sub&gt;" style="endArrow=classic;html=1;rounded=0;exitX=1;exitY=0.5;exitDx=0;exitDy=0;entryX=0;entryY=0.75;entryDx=0;entryDy=0;" edge="1" parent="1" source="MnEyjB3m39jPUvWwfNaF-13" target="MnEyjB3m39jPUvWwfNaF-14">
          <mxGeometry x="-0.28" y="-2" width="50" height="50" relative="1" as="geometry">
            <mxPoint x="200" y="195" as="sourcePoint" />
            <mxPoint x="280" y="125" as="targetPoint" />
            <mxPoint as="offset" />
          </mxGeometry>
        </mxCell>
        <mxCell id="MnEyjB3m39jPUvWwfNaF-13" value="X&lt;sub&gt;2&lt;/sub&gt;" style="rounded=1;whiteSpace=wrap;html=1;" vertex="1" parent="1">
          <mxGeometry x="110" y="160" width="90" height="40" as="geometry" />
        </mxCell>
        <mxCell id="MnEyjB3m39jPUvWwfNaF-17" style="edgeStyle=orthogonalEdgeStyle;rounded=0;orthogonalLoop=1;jettySize=auto;html=1;entryX=0;entryY=0.5;entryDx=0;entryDy=0;" edge="1" parent="1" source="MnEyjB3m39jPUvWwfNaF-14" target="MnEyjB3m39jPUvWwfNaF-5">
          <mxGeometry relative="1" as="geometry" />
        </mxCell>
        <mxCell id="MnEyjB3m39jPUvWwfNaF-14" value="Y&lt;sub&gt;1&lt;/sub&gt;" style="rounded=1;whiteSpace=wrap;html=1;" vertex="1" parent="1">
          <mxGeometry x="280" y="90" width="90" height="40" as="geometry" />
        </mxCell>
        <mxCell id="MnEyjB3m39jPUvWwfNaF-18" style="edgeStyle=orthogonalEdgeStyle;rounded=0;orthogonalLoop=1;jettySize=auto;html=1;entryX=0;entryY=0.5;entryDx=0;entryDy=0;" edge="1" parent="1" source="MnEyjB3m39jPUvWwfNaF-15" target="MnEyjB3m39jPUvWwfNaF-16">
          <mxGeometry relative="1" as="geometry" />
        </mxCell>
        <mxCell id="MnEyjB3m39jPUvWwfNaF-15" value="Y&lt;sub&gt;2&lt;/sub&gt;" style="rounded=1;whiteSpace=wrap;html=1;" vertex="1" parent="1">
          <mxGeometry x="280" y="160" width="90" height="40" as="geometry" />
        </mxCell>
        <mxCell id="MnEyjB3m39jPUvWwfNaF-16" value="E&lt;sub&gt;2&lt;/sub&gt;" style="ellipse;whiteSpace=wrap;html=1;aspect=fixed;" vertex="1" parent="1">
          <mxGeometry x="401" y="167.5" width="25" height="25" as="geometry" />
        </mxCell>
        <mxCell id="MnEyjB3m39jPUvWwfNaF-22" value="" style="endArrow=classic;startArrow=classic;html=1;rounded=0;entryX=1;entryY=0.5;entryDx=0;entryDy=0;exitX=1;exitY=0.5;exitDx=0;exitDy=0;curved=1;" edge="1" parent="1" source="MnEyjB3m39jPUvWwfNaF-16" target="MnEyjB3m39jPUvWwfNaF-5">
          <mxGeometry width="50" height="50" relative="1" as="geometry">
            <mxPoint x="450" y="147.5" as="sourcePoint" />
            <mxPoint x="500" y="97.5" as="targetPoint" />
            <Array as="points">
              <mxPoint x="450" y="145" />
            </Array>
          </mxGeometry>
        </mxCell>
        <mxCell id="MnEyjB3m39jPUvWwfNaF-23" value="X&lt;sub&gt;1&lt;/sub&gt;" style="rounded=1;whiteSpace=wrap;html=1;" vertex="1" parent="1">
          <mxGeometry x="110" y="240" width="90" height="40" as="geometry" />
        </mxCell>
        <mxCell id="MnEyjB3m39jPUvWwfNaF-24" value="E" style="ellipse;whiteSpace=wrap;html=1;aspect=fixed;" vertex="1" parent="1">
          <mxGeometry x="401" y="247.5" width="25" height="25" as="geometry" />
        </mxCell>
        <mxCell id="MnEyjB3m39jPUvWwfNaF-25" value="a" style="endArrow=classic;html=1;rounded=0;exitX=1;exitY=0.5;exitDx=0;exitDy=0;entryX=0;entryY=0.5;entryDx=0;entryDy=0;" edge="1" parent="1" source="MnEyjB3m39jPUvWwfNaF-23" target="MnEyjB3m39jPUvWwfNaF-31">
          <mxGeometry width="50" height="50" relative="1" as="geometry">
            <mxPoint x="380" y="440" as="sourcePoint" />
            <mxPoint x="280" y="260" as="targetPoint" />
          </mxGeometry>
        </mxCell>
        <mxCell id="MnEyjB3m39jPUvWwfNaF-26" value="a" style="endArrow=classic;html=1;rounded=0;exitX=1;exitY=0.5;exitDx=0;exitDy=0;entryX=0;entryY=0.5;entryDx=0;entryDy=0;" edge="1" parent="1" source="MnEyjB3m39jPUvWwfNaF-29" target="MnEyjB3m39jPUvWwfNaF-33">
          <mxGeometry width="50" height="50" relative="1" as="geometry">
            <mxPoint x="200" y="345" as="sourcePoint" />
            <mxPoint x="280" y="340" as="targetPoint" />
          </mxGeometry>
        </mxCell>
        <mxCell id="MnEyjB3m39jPUvWwfNaF-27" value="p" style="endArrow=classic;html=1;rounded=0;exitX=1;exitY=0.5;exitDx=0;exitDy=0;entryX=0;entryY=0.25;entryDx=0;entryDy=0;" edge="1" parent="1" source="MnEyjB3m39jPUvWwfNaF-23" target="MnEyjB3m39jPUvWwfNaF-33">
          <mxGeometry x="-0.28" y="2" width="50" height="50" relative="1" as="geometry">
            <mxPoint x="210" y="270" as="sourcePoint" />
            <mxPoint x="280" y="325" as="targetPoint" />
            <mxPoint as="offset" />
          </mxGeometry>
        </mxCell>
        <mxCell id="MnEyjB3m39jPUvWwfNaF-28" value="p" style="endArrow=classic;html=1;rounded=0;exitX=1;exitY=0.5;exitDx=0;exitDy=0;entryX=0;entryY=0.75;entryDx=0;entryDy=0;" edge="1" parent="1" source="MnEyjB3m39jPUvWwfNaF-29" target="MnEyjB3m39jPUvWwfNaF-31">
          <mxGeometry x="-0.28" y="-2" width="50" height="50" relative="1" as="geometry">
            <mxPoint x="200" y="345" as="sourcePoint" />
            <mxPoint x="280" y="275" as="targetPoint" />
            <mxPoint as="offset" />
          </mxGeometry>
        </mxCell>
        <mxCell id="MnEyjB3m39jPUvWwfNaF-29" value="X&lt;sub&gt;2&lt;/sub&gt;" style="rounded=1;whiteSpace=wrap;html=1;" vertex="1" parent="1">
          <mxGeometry x="110" y="310" width="90" height="40" as="geometry" />
        </mxCell>
        <mxCell id="MnEyjB3m39jPUvWwfNaF-30" style="edgeStyle=orthogonalEdgeStyle;rounded=0;orthogonalLoop=1;jettySize=auto;html=1;entryX=0;entryY=0.5;entryDx=0;entryDy=0;" edge="1" parent="1" source="MnEyjB3m39jPUvWwfNaF-31" target="MnEyjB3m39jPUvWwfNaF-24">
          <mxGeometry relative="1" as="geometry" />
        </mxCell>
        <mxCell id="MnEyjB3m39jPUvWwfNaF-31" value="Y&lt;sub&gt;1&lt;/sub&gt;" style="rounded=1;whiteSpace=wrap;html=1;" vertex="1" parent="1">
          <mxGeometry x="280" y="240" width="90" height="40" as="geometry" />
        </mxCell>
        <mxCell id="MnEyjB3m39jPUvWwfNaF-32" style="edgeStyle=orthogonalEdgeStyle;rounded=0;orthogonalLoop=1;jettySize=auto;html=1;entryX=0;entryY=0.5;entryDx=0;entryDy=0;" edge="1" parent="1" source="MnEyjB3m39jPUvWwfNaF-33" target="MnEyjB3m39jPUvWwfNaF-34">
          <mxGeometry relative="1" as="geometry" />
        </mxCell>
        <mxCell id="MnEyjB3m39jPUvWwfNaF-33" value="Y&lt;sub&gt;2&lt;/sub&gt;" style="rounded=1;whiteSpace=wrap;html=1;" vertex="1" parent="1">
          <mxGeometry x="280" y="310" width="90" height="40" as="geometry" />
        </mxCell>
        <mxCell id="MnEyjB3m39jPUvWwfNaF-34" value="E" style="ellipse;whiteSpace=wrap;html=1;aspect=fixed;" vertex="1" parent="1">
          <mxGeometry x="401" y="317.5" width="25" height="25" as="geometry" />
        </mxCell>
        <mxCell id="MnEyjB3m39jPUvWwfNaF-35" value="" style="endArrow=classic;startArrow=classic;html=1;rounded=0;entryX=1;entryY=0.5;entryDx=0;entryDy=0;exitX=1;exitY=0.5;exitDx=0;exitDy=0;curved=1;" edge="1" parent="1" source="MnEyjB3m39jPUvWwfNaF-34" target="MnEyjB3m39jPUvWwfNaF-24">
          <mxGeometry width="50" height="50" relative="1" as="geometry">
            <mxPoint x="450" y="297.5" as="sourcePoint" />
            <mxPoint x="500" y="247.5" as="targetPoint" />
            <Array as="points">
              <mxPoint x="450" y="295" />
            </Array>
          </mxGeometry>
        </mxCell>
        <mxCell id="MnEyjB3m39jPUvWwfNaF-36" value="X&lt;span style=&quot;font-size: 10px;&quot;&gt;self&lt;/span&gt;" style="rounded=1;whiteSpace=wrap;html=1;" vertex="1" parent="1">
          <mxGeometry x="110" y="400" width="90" height="40" as="geometry" />
        </mxCell>
        <mxCell id="MnEyjB3m39jPUvWwfNaF-38" value="a" style="endArrow=classic;html=1;rounded=0;exitX=1;exitY=0.5;exitDx=0;exitDy=0;entryX=0;entryY=0.25;entryDx=0;entryDy=0;" edge="1" parent="1" source="MnEyjB3m39jPUvWwfNaF-36" target="MnEyjB3m39jPUvWwfNaF-44">
          <mxGeometry width="50" height="50" relative="1" as="geometry">
            <mxPoint x="380" y="600" as="sourcePoint" />
            <mxPoint x="260" y="440" as="targetPoint" />
          </mxGeometry>
        </mxCell>
        <mxCell id="MnEyjB3m39jPUvWwfNaF-42" value="X&lt;span style=&quot;font-size: 10px;&quot;&gt;partner&lt;/span&gt;" style="rounded=1;whiteSpace=wrap;html=1;" vertex="1" parent="1">
          <mxGeometry x="110" y="470" width="90" height="40" as="geometry" />
        </mxCell>
        <mxCell id="MnEyjB3m39jPUvWwfNaF-44" value="Y&lt;sub&gt;self&lt;/sub&gt;" style="rounded=1;whiteSpace=wrap;html=1;" vertex="1" parent="1">
          <mxGeometry x="280" y="430" width="90" height="40" as="geometry" />
        </mxCell>
        <mxCell id="MnEyjB3m39jPUvWwfNaF-49" value="p" style="endArrow=classic;html=1;rounded=0;exitX=1;exitY=0.5;exitDx=0;exitDy=0;entryX=0;entryY=0.75;entryDx=0;entryDy=0;" edge="1" parent="1" source="MnEyjB3m39jPUvWwfNaF-42" target="MnEyjB3m39jPUvWwfNaF-44">
          <mxGeometry width="50" height="50" relative="1" as="geometry">
            <mxPoint x="210" y="430" as="sourcePoint" />
            <mxPoint x="290" y="460" as="targetPoint" />
          </mxGeometry>
        </mxCell>
        <mxCell id="MnEyjB3m39jPUvWwfNaF-50" value="X&lt;span style=&quot;font-size: 10px;&quot;&gt;self&lt;/span&gt;" style="rounded=1;whiteSpace=wrap;html=1;" vertex="1" parent="1">
          <mxGeometry x="110" y="530" width="90" height="40" as="geometry" />
        </mxCell>
        <mxCell id="MnEyjB3m39jPUvWwfNaF-51" value="a" style="endArrow=classic;html=1;rounded=0;exitX=1;exitY=0.5;exitDx=0;exitDy=0;entryX=0;entryY=0.25;entryDx=0;entryDy=0;" edge="1" source="MnEyjB3m39jPUvWwfNaF-50" target="MnEyjB3m39jPUvWwfNaF-53" parent="1">
          <mxGeometry width="50" height="50" relative="1" as="geometry">
            <mxPoint x="380" y="730" as="sourcePoint" />
            <mxPoint x="260" y="570" as="targetPoint" />
          </mxGeometry>
        </mxCell>
        <mxCell id="MnEyjB3m39jPUvWwfNaF-52" value="X&lt;span style=&quot;font-size: 10px;&quot;&gt;partner&lt;/span&gt;" style="rounded=1;whiteSpace=wrap;html=1;" vertex="1" parent="1">
          <mxGeometry x="110" y="600" width="90" height="40" as="geometry" />
        </mxCell>
        <mxCell id="MnEyjB3m39jPUvWwfNaF-53" value="Y&lt;sub&gt;self&lt;/sub&gt;" style="rounded=1;whiteSpace=wrap;html=1;" vertex="1" parent="1">
          <mxGeometry x="280" y="560" width="90" height="40" as="geometry" />
        </mxCell>
        <mxCell id="MnEyjB3m39jPUvWwfNaF-54" value="p" style="endArrow=classic;html=1;rounded=0;exitX=1;exitY=0.5;exitDx=0;exitDy=0;entryX=0;entryY=0.75;entryDx=0;entryDy=0;" edge="1" source="MnEyjB3m39jPUvWwfNaF-52" target="MnEyjB3m39jPUvWwfNaF-53" parent="1">
          <mxGeometry width="50" height="50" relative="1" as="geometry">
            <mxPoint x="210" y="560" as="sourcePoint" />
            <mxPoint x="290" y="590" as="targetPoint" />
          </mxGeometry>
        </mxCell>
        <mxCell id="MnEyjB3m39jPUvWwfNaF-55" value="" style="endArrow=none;dashed=1;html=1;rounded=0;" edge="1" parent="1">
          <mxGeometry width="50" height="50" relative="1" as="geometry">
            <mxPoint x="88" y="521" as="sourcePoint" />
            <mxPoint x="410" y="520" as="targetPoint" />
          </mxGeometry>
        </mxCell>
        <mxCell id="MnEyjB3m39jPUvWwfNaF-58" value="E" style="ellipse;whiteSpace=wrap;html=1;aspect=fixed;" vertex="1" parent="1">
          <mxGeometry x="410" y="437.5" width="25" height="25" as="geometry" />
        </mxCell>
        <mxCell id="MnEyjB3m39jPUvWwfNaF-59" style="edgeStyle=orthogonalEdgeStyle;rounded=0;orthogonalLoop=1;jettySize=auto;html=1;entryX=0;entryY=0.5;entryDx=0;entryDy=0;exitX=1;exitY=0.5;exitDx=0;exitDy=0;" edge="1" target="MnEyjB3m39jPUvWwfNaF-58" parent="1" source="MnEyjB3m39jPUvWwfNaF-44">
          <mxGeometry relative="1" as="geometry">
            <mxPoint x="401" y="447.5" as="sourcePoint" />
          </mxGeometry>
        </mxCell>
        <mxCell id="MnEyjB3m39jPUvWwfNaF-60" style="edgeStyle=orthogonalEdgeStyle;rounded=0;orthogonalLoop=1;jettySize=auto;html=1;entryX=0;entryY=0.5;entryDx=0;entryDy=0;exitX=1;exitY=0.5;exitDx=0;exitDy=0;" edge="1" target="MnEyjB3m39jPUvWwfNaF-61" parent="1" source="MnEyjB3m39jPUvWwfNaF-53">
          <mxGeometry relative="1" as="geometry">
            <mxPoint x="401" y="517.5" as="sourcePoint" />
          </mxGeometry>
        </mxCell>
        <mxCell id="MnEyjB3m39jPUvWwfNaF-61" value="E" style="ellipse;whiteSpace=wrap;html=1;aspect=fixed;" vertex="1" parent="1">
          <mxGeometry x="410" y="567.5" width="25" height="25" as="geometry" />
        </mxCell>
        <mxCell id="MnEyjB3m39jPUvWwfNaF-62" value="" style="endArrow=classic;startArrow=classic;html=1;rounded=0;entryX=1;entryY=0.5;entryDx=0;entryDy=0;exitX=1;exitY=0.5;exitDx=0;exitDy=0;curved=1;" edge="1" source="MnEyjB3m39jPUvWwfNaF-61" target="MnEyjB3m39jPUvWwfNaF-58" parent="1">
          <mxGeometry width="50" height="50" relative="1" as="geometry">
            <mxPoint x="459" y="487.5" as="sourcePoint" />
            <mxPoint x="509" y="437.5" as="targetPoint" />
            <Array as="points">
              <mxPoint x="470" y="510" />
            </Array>
          </mxGeometry>
        </mxCell>
      </root>
    </mxGraphModel>
  </diagram>
</mxfile>
